<svg xmlns="http://www.w3.org/2000/svg" xmlns:xlink="http://www.w3.org/1999/xlink" width="500" zoomAndPan="magnify" viewBox="0 0 375 374.999991" height="500" preserveAspectRatio="xMidYMid meet" version="1.0"><defs><g/><clipPath id="4e59aa7db6"><path d="M 171.484375 136.734375 L 203.734375 136.734375 L 203.734375 174 L 171.484375 174 Z M 171.484375 136.734375 " clip-rule="nonzero"/></clipPath><clipPath id="e6d9893ced"><path d="M 182 175 L 195 175 L 195 187.734375 L 182 187.734375 Z M 182 175 " clip-rule="nonzero"/></clipPath></defs><path fill="#000000" d="M 256.660156 236.148438 C 252.757812 224.425781 249.507812 210.851562 243.003906 199.132812 C 236.5 187.417969 222.839844 185.101562 222.839844 185.101562 C 237.15625 175.980469 235.964844 165.253906 226.859375 155.601562 C 217.761719 145.949219 217.109375 134.144531 211.253906 124.488281 C 205.410156 114.828125 194.660156 113.21875 187.734375 113.21875 C 180.808594 113.21875 170.054688 114.828125 164.199219 124.480469 C 158.339844 134.136719 157.699219 145.945312 148.59375 155.597656 C 139.484375 165.25 138.304688 175.980469 152.613281 185.09375 C 152.613281 185.09375 138.957031 187.417969 132.449219 199.128906 C 125.949219 210.84375 122.695312 224.417969 118.789062 236.144531 C 114.886719 247.859375 117.902344 252.6875 128.960938 252.6875 C 131.609375 252.6875 136.390625 252.6875 142.089844 252.6875 C 143.03125 250.691406 144.605469 249.050781 146.640625 248.164062 L 140.15625 204.148438 C 139.773438 201.515625 140.519531 198.886719 142.214844 196.933594 C 143.898438 194.980469 146.398438 193.859375 149.058594 193.859375 L 226.40625 193.859375 C 229.0625 193.859375 231.558594 194.980469 233.25 196.9375 C 234.9375 198.886719 235.683594 201.515625 235.300781 204.148438 L 228.816406 248.164062 C 230.851562 249.046875 232.417969 250.691406 233.367188 252.6875 C 239.082031 252.6875 243.847656 252.6875 246.503906 252.6875 C 257.554688 252.6875 260.566406 247.863281 256.660156 236.148438 Z M 209.6875 155.292969 C 209.164062 160.359375 207.9375 168.601562 205.15625 174.546875 C 200.878906 183.707031 191.699219 187.777344 187.734375 187.777344 C 183.757812 187.777344 174.585938 183.707031 170.300781 174.546875 C 167.519531 168.601562 166.296875 160.355469 165.769531 155.292969 C 161.917969 157.886719 158.191406 161.316406 158.191406 161.316406 C 160.335938 156.398438 165.410156 150.730469 165.410156 150.730469 C 172.136719 139.742188 187.738281 134.851562 187.738281 134.851562 C 187.738281 134.851562 203.328125 139.742188 210.054688 150.730469 C 210.054688 150.730469 215.132812 156.402344 217.273438 161.316406 C 217.269531 161.316406 213.539062 157.886719 209.6875 155.292969 Z M 209.6875 155.292969 " fill-opacity="1" fill-rule="nonzero"/><path fill="#000000" d="M 197.554688 233.636719 C 198.234375 232.277344 198.765625 229.820312 199.136719 227.074219 L 187.734375 227.074219 L 187.734375 240.753906 C 192.628906 239.230469 195.933594 236.839844 197.554688 233.636719 Z M 197.554688 233.636719 " fill-opacity="1" fill-rule="nonzero"/><path fill="#000000" d="M 187.734375 227.070312 L 187.734375 210.914062 C 185.410156 210.914062 182.558594 211.421875 179.835938 212.320312 C 179.253906 214.316406 178 216.703125 175.613281 218.65625 C 175.710938 221.183594 175.941406 224.277344 176.320312 227.074219 L 187.734375 227.074219 Z M 187.734375 227.070312 " fill-opacity="1" fill-rule="nonzero"/><path fill="#000000" d="M 225.195312 252.6875 L 222.816406 252.6875 L 230.082031 203.378906 C 230.417969 201.046875 228.765625 199.132812 226.40625 199.132812 L 192.027344 199.132812 C 189.667969 199.132812 185.789062 199.132812 183.429688 199.132812 L 149.058594 199.132812 C 146.695312 199.132812 145.046875 201.046875 145.390625 203.378906 L 152.644531 252.6875 L 150.273438 252.6875 C 148.152344 252.6875 146.417969 254.410156 146.417969 256.535156 L 146.417969 257.933594 C 146.417969 260.058594 148.152344 261.78125 150.273438 261.78125 L 225.195312 261.78125 C 227.320312 261.78125 229.046875 260.058594 229.046875 257.933594 L 229.046875 256.535156 C 229.046875 254.410156 227.320312 252.6875 225.195312 252.6875 Z M 176.675781 209.667969 C 180.378906 208.191406 184.472656 207.347656 187.734375 207.347656 C 190.984375 207.347656 195.085938 208.191406 198.78125 209.667969 C 198.78125 209.667969 198.78125 214.09375 203.46875 216.835938 C 203.46875 216.835938 203.269531 230.234375 200.734375 235.246094 C 198.203125 240.253906 193.054688 242.996094 187.734375 244.46875 C 182.40625 242.996094 177.253906 240.253906 174.722656 235.246094 C 172.1875 230.234375 171.988281 216.835938 171.988281 216.835938 C 176.675781 214.097656 176.675781 209.667969 176.675781 209.667969 Z M 211.660156 254.289062 L 163.8125 254.289062 C 163.058594 254.289062 162.457031 253.679688 162.457031 252.933594 C 162.457031 252.191406 163.058594 251.582031 163.8125 251.582031 L 211.660156 251.582031 C 212.402344 251.582031 213.011719 252.191406 213.011719 252.933594 C 213.011719 253.679688 212.402344 254.289062 211.660156 254.289062 Z M 211.660156 254.289062 " fill-opacity="1" fill-rule="nonzero"/><g clip-path="url(#4e59aa7db6)"><path fill="#f7af76" d="M 199.101562 139.421875 C 200.515625 140.519531 201.578125 141.820312 202.195312 143.480469 C 202.46875 144.21875 202.933594 144.894531 203.175781 145.644531 C 203.730469 147.359375 203.515625 149.066406 202.828125 150.703125 C 201.496094 153.863281 199.375 156.441406 196.847656 158.714844 C 195.769531 159.683594 194.648438 160.609375 193.566406 161.574219 C 191.839844 163.121094 191.386719 165.042969 191.90625 167.257812 C 192.183594 168.4375 192.417969 169.625 192.613281 170.816406 C 192.902344 172.59375 191.945312 173.683594 190.15625 173.765625 C 188.441406 173.847656 187.074219 173.074219 185.824219 172.054688 C 183.683594 170.3125 182.867188 168.015625 183.066406 165.292969 C 183.289062 162.304688 184.792969 159.878906 186.417969 157.511719 C 188.152344 154.988281 189.992188 152.539062 191.660156 149.976562 C 192.644531 148.464844 193.390625 146.804688 194.230469 145.203125 C 194.386719 144.90625 194.480469 144.574219 194.578125 144.253906 C 194.917969 143.132812 194.488281 142.304688 193.375 141.902344 C 192.390625 141.550781 191.363281 141.558594 190.367188 141.714844 C 187.121094 142.21875 184.742188 144.078125 182.890625 146.6875 C 182.761719 146.875 182.652344 147.183594 182.710938 147.382812 C 183.394531 149.617188 183.191406 151.855469 182.824219 154.101562 C 182.730469 154.6875 182.695312 155.28125 182.648438 155.871094 C 182.59375 156.523438 182.605469 157.183594 182.492188 157.824219 C 182.339844 158.683594 181.8125 159.285156 180.976562 159.597656 C 180.53125 159.761719 180.101562 160.007812 179.640625 160.070312 C 179.167969 160.140625 178.613281 160.160156 178.199219 159.972656 C 177.316406 159.574219 176.445312 159.101562 175.667969 158.523438 C 172.785156 156.375 171.484375 153.429688 171.664062 149.886719 C 171.710938 148.992188 172.101562 148.070312 172.511719 147.25 C 173.511719 145.265625 175.0625 143.730469 176.839844 142.421875 C 180.371094 139.824219 184.289062 138.082031 188.597656 137.289062 C 191.558594 136.746094 194.503906 136.777344 197.261719 138.234375 C 197.894531 138.570312 198.46875 139.003906 199.101562 139.421875 Z M 187.109375 161.511719 C 186.875 161.949219 186.640625 162.382812 186.414062 162.824219 C 186.378906 162.882812 186.394531 162.96875 186.386719 163.042969 C 186.433594 163.015625 186.496094 162.996094 186.515625 162.953125 C 186.738281 162.457031 186.953125 161.960938 187.199219 161.429688 C 187.203125 161.40625 187.203125 161.378906 187.207031 161.355469 C 187.195312 161.390625 187.1875 161.429688 187.109375 161.511719 Z M 198.269531 145.953125 C 197.867188 147.296875 197.464844 148.644531 197.066406 149.992188 C 197.035156 150.097656 197.035156 150.210938 197.023438 150.324219 C 197.125 150.253906 197.246094 150.199219 197.324219 150.105469 C 197.53125 149.863281 197.726562 149.609375 197.910156 149.351562 C 199.167969 147.582031 200.246094 145.75 200.089844 143.449219 C 200.046875 142.820312 199.851562 142.300781 199.320312 141.988281 C 198.589844 141.554688 197.816406 141.1875 197.058594 140.796875 C 196.996094 140.765625 196.910156 140.777344 196.835938 140.765625 C 196.863281 140.832031 196.882812 140.902344 196.925781 140.957031 C 197.105469 141.195312 197.300781 141.421875 197.46875 141.667969 C 198.351562 142.9375 198.378906 144.378906 198.269531 145.953125 Z M 187.65625 171.203125 C 187.167969 170.945312 186.679688 170.6875 186.1875 170.433594 C 186.105469 170.390625 186.015625 170.359375 185.929688 170.324219 C 185.9375 170.414062 185.925781 170.511719 185.957031 170.589844 C 186.320312 171.417969 186.882812 171.996094 187.820312 172.167969 C 189.214844 172.421875 190.304688 171.757812 190.476562 170.476562 C 190.519531 170.148438 190.511719 169.796875 190.441406 169.472656 C 190.117188 167.988281 189.761719 166.507812 189.417969 165.027344 C 189.402344 164.972656 189.394531 164.917969 189.382812 164.859375 C 189.375 164.917969 189.355469 164.976562 189.355469 165.035156 C 189.375 165.667969 189.441406 166.300781 189.417969 166.933594 C 189.375 167.976562 189.359375 169.027344 189.183594 170.050781 C 189.0625 170.742188 188.570312 171.25 187.65625 171.203125 Z M 194.714844 140.480469 C 194.164062 140.476562 193.609375 140.472656 193.058594 140.472656 C 193.007812 140.472656 192.957031 140.5 192.90625 140.515625 C 192.945312 140.554688 192.976562 140.601562 193.015625 140.632812 C 193.984375 141.320312 194.949219 142.003906 195.921875 142.679688 C 195.957031 142.707031 196.113281 142.652344 196.121094 142.621094 C 196.234375 141.898438 195.523438 140.75 194.714844 140.480469 Z M 194.628906 138.691406 C 194.589844 138.722656 194.546875 138.75 194.507812 138.78125 C 194.527344 138.785156 194.546875 138.789062 194.5625 138.796875 C 195.199219 139.023438 195.847656 139.222656 196.464844 139.488281 C 197.175781 139.796875 197.855469 140.171875 198.554688 140.511719 C 198.632812 140.546875 198.734375 140.535156 198.824219 140.546875 C 198.792969 140.464844 198.78125 140.351562 198.71875 140.300781 C 198.367188 140.015625 198.042969 139.632812 197.632812 139.488281 C 196.683594 139.160156 195.691406 138.949219 194.628906 138.691406 Z M 177.304688 153.929688 C 177.28125 153.339844 177.261719 152.746094 177.234375 152.15625 C 177.234375 152.085938 177.21875 152.015625 177.210938 151.941406 C 177.1875 152.011719 177.144531 152.082031 177.136719 152.152344 C 177.0625 153.191406 176.980469 154.230469 176.929688 155.273438 C 176.921875 155.417969 177.105469 155.710938 177.15625 155.703125 C 177.4375 155.648438 177.578125 155.480469 177.492188 155.144531 C 177.402344 154.785156 177.378906 154.40625 177.304688 153.929688 Z M 178.296875 158.1875 C 178.441406 158.132812 178.617188 158.117188 178.730469 158.023438 C 178.855469 157.921875 178.917969 157.75 179.011719 157.605469 C 178.839844 157.546875 178.671875 157.457031 178.496094 157.4375 C 178.273438 157.40625 178.035156 157.417969 177.808594 157.441406 C 177.660156 157.457031 177.515625 157.527344 177.371094 157.570312 C 177.453125 157.785156 177.484375 158.050781 177.632812 158.191406 C 177.738281 158.292969 178.007812 158.214844 178.296875 158.1875 Z M 175.152344 156.46875 C 174.972656 155.960938 174.796875 155.449219 174.609375 154.945312 C 174.578125 154.863281 174.488281 154.804688 174.425781 154.734375 C 174.421875 154.824219 174.386719 154.929688 174.421875 155.003906 C 174.636719 155.484375 174.867188 155.960938 175.152344 156.46875 Z M 178.3125 146.851562 C 178.28125 146.78125 178.25 146.714844 178.21875 146.644531 C 178.167969 146.769531 178.121094 146.890625 178.070312 147.015625 C 178.152344 146.984375 178.230469 146.953125 178.3125 146.851562 Z M 178.3125 146.851562 " fill-opacity="1" fill-rule="nonzero"/></g><g clip-path="url(#e6d9893ced)"><path fill="#f7af76" d="M 187.226562 186.707031 C 185.410156 185.738281 183.859375 184.5625 183.078125 182.621094 C 181.839844 179.546875 183.8125 176.269531 187.121094 175.890625 C 190.070312 175.550781 192.386719 176.753906 193.804688 179.203125 C 194.777344 180.882812 195.25 182.882812 194.164062 184.835938 C 193.113281 186.722656 190.636719 187.71875 188.449219 187.132812 C 188.046875 187.023438 187.660156 186.863281 187.226562 186.707031 Z M 191.851562 178.296875 L 191.871094 178.304688 C 191.871094 178.304688 191.832031 178.277344 191.8125 178.199219 C 191.433594 177.988281 191.058594 177.773438 190.675781 177.570312 C 190.632812 177.550781 190.550781 177.605469 190.488281 177.625 C 190.527344 177.664062 190.558594 177.71875 190.605469 177.738281 C 191.015625 177.921875 191.429688 178.097656 191.851562 178.296875 Z M 187.195312 182.953125 C 187 182.9375 186.796875 182.410156 186.628906 182.890625 C 186.285156 183.863281 187.140625 184.847656 188.152344 184.6875 C 188.480469 184.636719 188.804688 184.535156 189.128906 184.445312 C 189.214844 184.421875 189.289062 184.347656 189.371094 184.296875 C 189.292969 184.246094 189.214844 184.183594 189.136719 184.136719 C 188.511719 183.757812 187.886719 183.382812 187.195312 182.953125 Z M 191.636719 180.730469 C 191.757812 180.964844 191.875 181.203125 191.996094 181.4375 C 192.089844 181.160156 192.214844 180.886719 192.265625 180.605469 C 192.300781 180.417969 192.265625 180.207031 192.203125 180.023438 C 191.980469 179.378906 190.957031 178.90625 190.273438 179.117188 C 190.238281 179.128906 190.199219 179.140625 190.164062 179.152344 C 190.226562 179.179688 190.292969 179.203125 190.355469 179.230469 C 190.777344 179.410156 191.222656 179.554688 191.617188 179.785156 C 191.929688 179.964844 192.199219 180.253906 191.589844 180.453125 C 191.574219 180.460938 191.597656 180.585938 191.636719 180.730469 Z M 191.636719 180.730469 " fill-opacity="1" fill-rule="nonzero"/></g><g fill="#000000" fill-opacity="1"><g transform="translate(122.952157, 284.020613)"><g><path d="M 7.15625 -2.4375 C 7.570312 -2.4375 7.972656 -2.5 8.359375 -2.625 C 8.742188 -2.75 9.023438 -2.867188 9.203125 -2.984375 L 9.484375 -3.171875 L 10.625 -0.875 C 10.59375 -0.84375 10.539062 -0.800781 10.46875 -0.75 C 10.40625 -0.707031 10.25 -0.617188 10 -0.484375 C 9.757812 -0.359375 9.5 -0.25 9.21875 -0.15625 C 8.945312 -0.0625 8.582031 0.0195312 8.125 0.09375 C 7.675781 0.175781 7.210938 0.21875 6.734375 0.21875 C 5.640625 0.21875 4.597656 -0.0507812 3.609375 -0.59375 C 2.628906 -1.132812 1.835938 -1.878906 1.234375 -2.828125 C 0.628906 -3.773438 0.328125 -4.796875 0.328125 -5.890625 C 0.328125 -6.722656 0.503906 -7.519531 0.859375 -8.28125 C 1.210938 -9.050781 1.679688 -9.707031 2.265625 -10.25 C 2.859375 -10.800781 3.546875 -11.238281 4.328125 -11.5625 C 5.117188 -11.882812 5.921875 -12.046875 6.734375 -12.046875 C 7.503906 -12.046875 8.210938 -11.953125 8.859375 -11.765625 C 9.503906 -11.585938 9.960938 -11.410156 10.234375 -11.234375 L 10.625 -10.953125 L 9.484375 -8.65625 C 9.410156 -8.71875 9.304688 -8.789062 9.171875 -8.875 C 9.046875 -8.957031 8.78125 -9.0625 8.375 -9.1875 C 7.976562 -9.320312 7.570312 -9.390625 7.15625 -9.390625 C 6.507812 -9.390625 5.925781 -9.285156 5.40625 -9.078125 C 4.894531 -8.867188 4.488281 -8.59375 4.1875 -8.25 C 3.882812 -7.90625 3.648438 -7.535156 3.484375 -7.140625 C 3.328125 -6.742188 3.25 -6.335938 3.25 -5.921875 C 3.25 -5.023438 3.585938 -4.21875 4.265625 -3.5 C 4.941406 -2.789062 5.90625 -2.4375 7.15625 -2.4375 Z M 7.15625 -2.4375 "/></g></g></g><g fill="#000000" fill-opacity="1"><g transform="translate(136.358376, 284.020613)"><g><path d="M -0.4375 -11.828125 L 2.8125 -11.828125 L 5.28125 -8.046875 L 7.75 -11.828125 L 10.984375 -11.828125 L 6.625 -5.3125 L 6.625 0 L 3.9375 0 L 3.9375 -5.3125 Z M -0.4375 -11.828125 "/></g></g></g><g fill="#000000" fill-opacity="1"><g transform="translate(149.520847, 284.020613)"><g><path d="M 0.859375 -11.828125 L 4.53125 -11.828125 C 5.644531 -11.828125 6.53125 -11.585938 7.1875 -11.109375 C 7.84375 -10.640625 8.171875 -9.878906 8.171875 -8.828125 C 8.171875 -7.640625 7.679688 -6.789062 6.703125 -6.28125 C 8.378906 -5.988281 9.21875 -4.992188 9.21875 -3.296875 C 9.21875 -2.304688 8.875 -1.507812 8.1875 -0.90625 C 7.5 -0.300781 6.550781 0 5.34375 0 L 0.859375 0 Z M 3.5625 -7.203125 L 3.765625 -7.203125 C 4.367188 -7.203125 4.816406 -7.304688 5.109375 -7.515625 C 5.410156 -7.722656 5.5625 -8.066406 5.5625 -8.546875 C 5.5625 -9.347656 4.960938 -9.75 3.765625 -9.75 L 3.5625 -9.75 Z M 3.5625 -2.078125 L 4.40625 -2.078125 C 5.726562 -2.078125 6.390625 -2.519531 6.390625 -3.40625 C 6.390625 -3.925781 6.222656 -4.300781 5.890625 -4.53125 C 5.554688 -4.757812 5.0625 -4.875 4.40625 -4.875 L 3.5625 -4.875 Z M 3.5625 -2.078125 "/></g></g></g><g fill="#000000" fill-opacity="1"><g transform="translate(161.679641, 284.020613)"><g><path d="M 7.625 -11.828125 L 7.625 -9.46875 L 3.5625 -9.46875 L 3.5625 -7.109375 L 7.453125 -7.109375 L 7.453125 -4.75 L 3.5625 -4.75 L 3.5625 -2.359375 L 7.625 -2.359375 L 7.625 0 L 0.859375 0 L 0.859375 -11.828125 Z M 7.625 -11.828125 "/></g></g></g><g fill="#000000" fill-opacity="1"><g transform="translate(172.605348, 284.020613)"><g><path d="M 0.859375 -11.828125 L 5.09375 -11.828125 C 6.226562 -11.828125 7.15625 -11.523438 7.875 -10.921875 C 8.59375 -10.316406 8.953125 -9.445312 8.953125 -8.3125 C 8.953125 -7.445312 8.734375 -6.71875 8.296875 -6.125 C 7.859375 -5.539062 7.269531 -5.128906 6.53125 -4.890625 L 10.59375 0 L 7.171875 0 L 3.5625 -4.671875 L 3.5625 0 L 0.859375 0 Z M 3.5625 -6.578125 L 3.875 -6.578125 C 4.125 -6.578125 4.332031 -6.582031 4.5 -6.59375 C 4.675781 -6.601562 4.875 -6.632812 5.09375 -6.6875 C 5.3125 -6.75 5.488281 -6.832031 5.625 -6.9375 C 5.757812 -7.039062 5.875 -7.191406 5.96875 -7.390625 C 6.0625 -7.597656 6.109375 -7.84375 6.109375 -8.125 C 6.109375 -8.414062 6.0625 -8.660156 5.96875 -8.859375 C 5.875 -9.066406 5.757812 -9.222656 5.625 -9.328125 C 5.488281 -9.429688 5.3125 -9.507812 5.09375 -9.5625 C 4.875 -9.625 4.675781 -9.660156 4.5 -9.671875 C 4.332031 -9.679688 4.125 -9.6875 3.875 -9.6875 L 3.5625 -9.6875 Z M 3.5625 -6.578125 "/></g></g></g><g fill="#000000" fill-opacity="1"><g transform="translate(185.481048, 284.020613)"><g/></g></g><g fill="#000000" fill-opacity="1"><g transform="translate(192.004932, 284.020613)"><g><path d="M 3.75 2.484375 L 3.09375 1.5 C 3.125 1.46875 3.160156 1.421875 3.203125 1.359375 C 3.253906 1.304688 3.359375 1.195312 3.515625 1.03125 C 3.671875 0.875 3.816406 0.734375 3.953125 0.609375 C 4.097656 0.492188 4.265625 0.390625 4.453125 0.296875 C 4.648438 0.203125 4.828125 0.15625 4.984375 0.15625 L 4.984375 0.09375 C 3.585938 -0.164062 2.460938 -0.847656 1.609375 -1.953125 C 0.753906 -3.066406 0.328125 -4.390625 0.328125 -5.921875 C 0.328125 -7.640625 0.898438 -9.085938 2.046875 -10.265625 C 3.191406 -11.453125 4.582031 -12.046875 6.21875 -12.046875 C 7.863281 -12.046875 9.253906 -11.453125 10.390625 -10.265625 C 11.535156 -9.085938 12.109375 -7.640625 12.109375 -5.921875 C 12.109375 -4.515625 11.726562 -3.273438 10.96875 -2.203125 C 10.21875 -1.140625 9.222656 -0.421875 7.984375 -0.046875 L 7.984375 0.015625 C 8.046875 0.015625 8.300781 0.0546875 8.75 0.140625 C 9.195312 0.234375 9.554688 0.28125 9.828125 0.28125 C 10.191406 0.28125 10.519531 0.21875 10.8125 0.09375 C 11.113281 -0.03125 11.320312 -0.15625 11.4375 -0.28125 L 11.609375 -0.484375 L 12.453125 1.328125 C 12.429688 1.378906 12.398438 1.441406 12.359375 1.515625 C 12.316406 1.585938 12.21875 1.710938 12.0625 1.890625 C 11.90625 2.078125 11.734375 2.238281 11.546875 2.375 C 11.367188 2.519531 11.125 2.648438 10.8125 2.765625 C 10.5 2.878906 10.164062 2.9375 9.8125 2.9375 C 9.226562 2.9375 8.515625 2.75 7.671875 2.375 C 6.828125 2.007812 6.101562 1.828125 5.5 1.828125 C 5.15625 1.828125 4.835938 1.878906 4.546875 1.984375 C 4.253906 2.097656 4.050781 2.210938 3.9375 2.328125 Z M 3.234375 -5.921875 C 3.234375 -5.460938 3.285156 -5.035156 3.390625 -4.640625 C 3.503906 -4.242188 3.671875 -3.878906 3.890625 -3.546875 C 4.117188 -3.222656 4.429688 -2.96875 4.828125 -2.78125 C 5.222656 -2.601562 5.6875 -2.515625 6.21875 -2.515625 C 7.226562 -2.515625 7.972656 -2.835938 8.453125 -3.484375 C 8.941406 -4.128906 9.1875 -4.941406 9.1875 -5.921875 C 9.1875 -6.890625 8.9375 -7.703125 8.4375 -8.359375 C 7.945312 -9.015625 7.207031 -9.34375 6.21875 -9.34375 C 5.25 -9.34375 4.507812 -9.007812 4 -8.34375 C 3.488281 -7.6875 3.234375 -6.878906 3.234375 -5.921875 Z M 3.234375 -5.921875 "/></g></g></g><g fill="#000000" fill-opacity="1"><g transform="translate(207.045702, 284.020613)"><g><path d="M 9.953125 -11.828125 L 9.953125 -4.203125 C 9.953125 -2.742188 9.5625 -1.640625 8.78125 -0.890625 C 8 -0.148438 6.847656 0.21875 5.328125 0.21875 C 3.816406 0.21875 2.671875 -0.148438 1.890625 -0.890625 C 1.109375 -1.640625 0.71875 -2.742188 0.71875 -4.203125 L 0.71875 -11.828125 L 3.40625 -11.828125 L 3.40625 -4.984375 C 3.40625 -4.035156 3.554688 -3.375 3.859375 -3 C 4.160156 -2.625 4.648438 -2.4375 5.328125 -2.4375 C 6.015625 -2.4375 6.507812 -2.625 6.8125 -3 C 7.113281 -3.375 7.265625 -4.035156 7.265625 -4.984375 L 7.265625 -11.828125 Z M 9.953125 -11.828125 "/></g></g></g><g fill="#000000" fill-opacity="1"><g transform="translate(220.32287, 284.020613)"><g><path d="M 7.625 -11.828125 L 7.625 -9.46875 L 3.5625 -9.46875 L 3.5625 -7.109375 L 7.453125 -7.109375 L 7.453125 -4.75 L 3.5625 -4.75 L 3.5625 -2.359375 L 7.625 -2.359375 L 7.625 0 L 0.859375 0 L 0.859375 -11.828125 Z M 7.625 -11.828125 "/></g></g></g><g fill="#000000" fill-opacity="1"><g transform="translate(231.24858, 284.020613)"><g><path d="M 5.21875 -12.046875 C 5.863281 -12.046875 6.488281 -11.953125 7.09375 -11.765625 C 7.707031 -11.578125 8.164062 -11.394531 8.46875 -11.21875 L 8.890625 -10.9375 L 7.796875 -8.78125 C 7.710938 -8.832031 7.59375 -8.90625 7.4375 -9 C 7.289062 -9.09375 7.003906 -9.210938 6.578125 -9.359375 C 6.160156 -9.515625 5.769531 -9.59375 5.40625 -9.59375 C 4.957031 -9.59375 4.609375 -9.492188 4.359375 -9.296875 C 4.117188 -9.109375 4 -8.851562 4 -8.53125 C 4 -8.375 4.054688 -8.222656 4.171875 -8.078125 C 4.285156 -7.941406 4.476562 -7.796875 4.75 -7.640625 C 5.03125 -7.484375 5.273438 -7.351562 5.484375 -7.25 C 5.703125 -7.15625 6.03125 -7.015625 6.46875 -6.828125 C 7.226562 -6.503906 7.878906 -6.0625 8.421875 -5.5 C 8.960938 -4.9375 9.234375 -4.300781 9.234375 -3.59375 C 9.234375 -2.914062 9.109375 -2.320312 8.859375 -1.8125 C 8.617188 -1.3125 8.285156 -0.914062 7.859375 -0.625 C 7.441406 -0.34375 6.972656 -0.132812 6.453125 0 C 5.941406 0.144531 5.382812 0.21875 4.78125 0.21875 C 4.257812 0.21875 3.75 0.164062 3.25 0.0625 C 2.757812 -0.0390625 2.34375 -0.171875 2 -0.328125 C 1.664062 -0.492188 1.363281 -0.648438 1.09375 -0.796875 C 0.832031 -0.953125 0.640625 -1.082031 0.515625 -1.1875 L 0.328125 -1.34375 L 1.671875 -3.609375 C 1.785156 -3.515625 1.941406 -3.394531 2.140625 -3.25 C 2.347656 -3.101562 2.707031 -2.90625 3.21875 -2.65625 C 3.726562 -2.40625 4.179688 -2.28125 4.578125 -2.28125 C 5.710938 -2.28125 6.28125 -2.664062 6.28125 -3.4375 C 6.28125 -3.601562 6.238281 -3.753906 6.15625 -3.890625 C 6.070312 -4.035156 5.925781 -4.175781 5.71875 -4.3125 C 5.519531 -4.445312 5.34375 -4.554688 5.1875 -4.640625 C 5.03125 -4.722656 4.769531 -4.847656 4.40625 -5.015625 C 4.050781 -5.179688 3.785156 -5.304688 3.609375 -5.390625 C 2.890625 -5.742188 2.332031 -6.1875 1.9375 -6.71875 C 1.550781 -7.25 1.359375 -7.820312 1.359375 -8.4375 C 1.359375 -9.5 1.75 -10.363281 2.53125 -11.03125 C 3.320312 -11.707031 4.21875 -12.046875 5.21875 -12.046875 Z M 5.21875 -12.046875 "/></g></g></g><g fill="#000000" fill-opacity="1"><g transform="translate(243.493411, 284.020613)"><g><path d="M 0.109375 -9.46875 L 0.109375 -11.828125 L 8.4375 -11.828125 L 8.4375 -9.46875 L 5.625 -9.46875 L 5.625 0 L 2.921875 0 L 2.921875 -9.46875 Z M 0.109375 -9.46875 "/></g></g></g></svg>